<svg width="35" height="35" viewBox="0 0 35 35" fill="none" xmlns="http://www.w3.org/2000/svg">
<path d="M33.9519 21.3354L30.7349 18.8198C30.7757 18.4319 30.8107 17.9784 30.8107 17.4986C30.8107 17.0188 30.7771 16.5653 30.7349 16.1773L33.9549 13.6603C34.5528 13.1878 34.7161 12.3492 34.3355 11.6507L30.9901 5.8625C30.6327 5.20919 29.8496 4.87375 29.0549 5.16687L25.2588 6.69081C24.5311 6.16581 23.7684 5.7225 22.9794 5.36812L22.4019 1.34169C22.3071 0.5775 21.6421 0 20.8561 0H14.1478C13.3617 0 12.6983 0.5775 12.6049 1.33L12.0259 5.37106C11.2617 5.71525 10.5108 6.15275 9.75094 6.69375L5.94469 5.16544C5.23149 4.88981 4.37837 5.19894 4.02399 5.84938L0.674247 11.6448C0.279061 12.3128 0.442372 13.1804 1.05344 13.6646L4.2705 16.1803C4.21943 16.6717 4.19469 17.099 4.19469 17.5001C4.19469 17.9011 4.2195 18.3284 4.2705 18.8213L1.0505 21.3384C0.452557 21.8123 0.290682 22.6509 0.671307 23.3479L4.01675 29.1361C4.37406 29.7879 5.14987 30.1262 5.95193 29.8317L9.748 28.3078C10.4742 28.8313 11.2369 29.2746 12.0259 29.6304L12.6034 33.6554C12.6982 34.4225 13.3617 35 14.1492 35H20.8576C21.6436 35 22.3086 34.4225 22.4019 33.67L22.9809 29.6304C23.7451 29.2848 24.4946 28.8487 25.2559 28.3062L29.0621 29.8346C29.2459 29.906 29.4369 29.9425 29.6338 29.9425C30.1996 29.9425 30.7202 29.6333 30.9827 29.1521L34.3427 23.3333C34.7161 22.6508 34.5527 21.8123 33.9519 21.3354ZM17.5019 23.3333C14.2849 23.3333 11.6686 20.7171 11.6686 17.5C11.6686 14.2829 14.2849 11.6667 17.5019 11.6667C20.719 11.6667 23.3352 14.2829 23.3352 17.5C23.3352 20.7171 20.719 23.3333 17.5019 23.3333Z" fill="white"/>
</svg>
