<svg width="35" height="35" viewBox="0 0 35 35" fill="none" xmlns="http://www.w3.org/2000/svg">
<g clip-path="url(#clip0_1_1014)">
<path d="M17.5003 10.832C13.8231 10.832 10.8316 13.8236 10.8316 17.5005C10.8316 21.1778 13.8231 24.1693 17.5003 24.1693C21.1773 24.1693 24.1689 21.1778 24.1689 17.5005C24.1689 13.8236 21.1773 10.832 17.5003 10.832ZM21.4596 16.2447L16.6822 21.0221C16.4816 21.2227 16.2186 21.3231 15.9558 21.3231C15.6931 21.3231 15.4303 21.2229 15.2298 21.0221L13.4041 19.1964C13.003 18.7956 13.003 18.1454 13.4041 17.7443C13.8049 17.3433 14.4551 17.3433 14.8562 17.7443L15.9558 18.844L20.0075 14.7926C20.4083 14.3915 21.0585 14.3915 21.4596 14.7926C21.8607 15.1934 21.8607 15.8436 21.4596 16.2447Z" fill="white"/>
<path d="M32.3681 9.49639L32.367 9.46915C32.3518 9.13296 32.3416 8.77728 32.3355 8.38154C32.3069 6.45173 30.7728 4.85544 28.8428 4.74756C24.8186 4.52299 21.7056 3.21081 19.0458 0.618237L19.0231 0.596607C18.1555 -0.198869 16.8468 -0.198869 15.9789 0.596607L15.9562 0.618237C13.2964 3.21081 10.1834 4.52299 6.15926 4.74783C4.22944 4.85544 2.6951 6.45173 2.66653 8.38181C2.66065 8.77488 2.65024 9.13056 2.63502 9.46915L2.63342 9.53244C2.55518 13.6359 2.45798 18.7428 4.16643 23.3781C5.10583 25.9272 6.52856 28.143 8.39482 29.9644C10.5204 32.0386 13.3044 33.6854 16.6695 34.8587C16.779 34.8969 16.8927 34.9279 17.0086 34.9511C17.172 34.9837 17.3365 35 17.501 35C17.6655 35 17.8303 34.9837 17.9934 34.9511C18.1093 34.9279 18.2239 34.8966 18.3339 34.8582C21.6949 33.6827 24.476 32.0352 26.5997 29.9612C28.4652 28.1392 29.8879 25.9229 30.8281 23.3733C32.543 18.7241 32.446 13.6076 32.3681 9.49639ZM17.5005 26.223C12.6908 26.223 8.778 22.3103 8.778 17.5006C8.778 12.6908 12.6908 8.77808 17.5005 8.77808C22.3099 8.77808 26.2229 12.6908 26.2229 17.5006C26.2229 22.3103 22.3099 26.223 17.5005 26.223Z" fill="white"/>
</g>
<defs>
<clipPath id="clip0_1_1014">
<rect width="35" height="35" fill="white"/>
</clipPath>
</defs>
</svg>
